<mxfile host="app.diagrams.net" agent="Mozilla/5.0 (Windows NT 10.0; Win64; x64) AppleWebKit/537.36 (KHTML, like Gecko) Chrome/129.0.0.0 Safari/537.36" version="24.7.17">
  <diagram name="Page-1" id="ncs8VlS2n46850DcymfN">
    <mxGraphModel dx="3713" dy="1833" grid="1" gridSize="10" guides="1" tooltips="1" connect="1" arrows="1" fold="1" page="1" pageScale="1" pageWidth="850" pageHeight="1100" math="0" shadow="0">
      <root>
        <mxCell id="0" />
        <mxCell id="1" parent="0" />
        <mxCell id="263Iciea_L3yjGNQv3Hv-72" value="" style="rounded=0;whiteSpace=wrap;html=1;" vertex="1" parent="1">
          <mxGeometry y="110" width="850" height="1370" as="geometry" />
        </mxCell>
        <mxCell id="263Iciea_L3yjGNQv3Hv-1" style="edgeStyle=orthogonalEdgeStyle;rounded=0;orthogonalLoop=1;jettySize=auto;html=1;" edge="1" parent="1" source="263Iciea_L3yjGNQv3Hv-2">
          <mxGeometry relative="1" as="geometry">
            <mxPoint x="200.0000000000001" y="593" as="targetPoint" />
          </mxGeometry>
        </mxCell>
        <mxCell id="263Iciea_L3yjGNQv3Hv-2" value="Global node" style="whiteSpace=wrap;html=1;aspect=fixed;" vertex="1" parent="1">
          <mxGeometry x="364" y="533.5" width="119" height="119" as="geometry" />
        </mxCell>
        <mxCell id="263Iciea_L3yjGNQv3Hv-3" style="edgeStyle=orthogonalEdgeStyle;rounded=0;orthogonalLoop=1;jettySize=auto;html=1;entryX=1;entryY=0.5;entryDx=0;entryDy=0;startArrow=classic;startFill=1;" edge="1" parent="1" source="263Iciea_L3yjGNQv3Hv-4" target="263Iciea_L3yjGNQv3Hv-2">
          <mxGeometry relative="1" as="geometry">
            <Array as="points">
              <mxPoint x="555" y="593" />
            </Array>
          </mxGeometry>
        </mxCell>
        <mxCell id="263Iciea_L3yjGNQv3Hv-4" value="Global node" style="whiteSpace=wrap;html=1;aspect=fixed;" vertex="1" parent="1">
          <mxGeometry x="510" y="312" width="90" height="90" as="geometry" />
        </mxCell>
        <mxCell id="263Iciea_L3yjGNQv3Hv-5" style="edgeStyle=orthogonalEdgeStyle;rounded=0;orthogonalLoop=1;jettySize=auto;html=1;entryX=0;entryY=0.5;entryDx=0;entryDy=0;startArrow=classic;startFill=1;" edge="1" parent="1" source="263Iciea_L3yjGNQv3Hv-8" target="263Iciea_L3yjGNQv3Hv-2">
          <mxGeometry relative="1" as="geometry">
            <Array as="points">
              <mxPoint x="305" y="593" />
            </Array>
          </mxGeometry>
        </mxCell>
        <mxCell id="263Iciea_L3yjGNQv3Hv-6" style="edgeStyle=orthogonalEdgeStyle;rounded=0;orthogonalLoop=1;jettySize=auto;html=1;startArrow=classic;startFill=1;" edge="1" parent="1" source="263Iciea_L3yjGNQv3Hv-8" target="263Iciea_L3yjGNQv3Hv-4">
          <mxGeometry relative="1" as="geometry" />
        </mxCell>
        <mxCell id="263Iciea_L3yjGNQv3Hv-7" value="Sync" style="edgeLabel;html=1;align=center;verticalAlign=middle;resizable=0;points=[];" vertex="1" connectable="0" parent="263Iciea_L3yjGNQv3Hv-6">
          <mxGeometry x="0.0816" y="4" relative="1" as="geometry">
            <mxPoint x="-12" y="4" as="offset" />
          </mxGeometry>
        </mxCell>
        <mxCell id="263Iciea_L3yjGNQv3Hv-8" value="Global node" style="whiteSpace=wrap;html=1;aspect=fixed;" vertex="1" parent="1">
          <mxGeometry x="260" y="312" width="90" height="90" as="geometry" />
        </mxCell>
        <mxCell id="263Iciea_L3yjGNQv3Hv-9" value="&lt;h1 style=&quot;margin-top: 0px;&quot;&gt;Model Subnet&lt;/h1&gt;" style="text;html=1;whiteSpace=wrap;overflow=hidden;rounded=0;align=center;" vertex="1" parent="1">
          <mxGeometry x="373" y="429" width="110" height="70" as="geometry" />
        </mxCell>
        <mxCell id="263Iciea_L3yjGNQv3Hv-10" value="Sync" style="edgeLabel;html=1;align=center;verticalAlign=middle;resizable=0;points=[];" vertex="1" connectable="0" parent="1">
          <mxGeometry x="440" y="382" as="geometry">
            <mxPoint x="116" y="85" as="offset" />
          </mxGeometry>
        </mxCell>
        <mxCell id="263Iciea_L3yjGNQv3Hv-11" value="Sync" style="edgeLabel;html=1;align=center;verticalAlign=middle;resizable=0;points=[];" vertex="1" connectable="0" parent="1">
          <mxGeometry x="305" y="528" as="geometry" />
        </mxCell>
        <mxCell id="263Iciea_L3yjGNQv3Hv-12" style="edgeStyle=orthogonalEdgeStyle;rounded=0;orthogonalLoop=1;jettySize=auto;html=1;entryX=0.5;entryY=1;entryDx=0;entryDy=0;" edge="1" parent="1" source="263Iciea_L3yjGNQv3Hv-14" target="263Iciea_L3yjGNQv3Hv-52">
          <mxGeometry relative="1" as="geometry">
            <Array as="points">
              <mxPoint x="423" y="854" />
            </Array>
          </mxGeometry>
        </mxCell>
        <mxCell id="263Iciea_L3yjGNQv3Hv-13" style="edgeStyle=orthogonalEdgeStyle;rounded=0;orthogonalLoop=1;jettySize=auto;html=1;entryX=0;entryY=0.5;entryDx=0;entryDy=0;" edge="1" parent="1" source="263Iciea_L3yjGNQv3Hv-14" target="263Iciea_L3yjGNQv3Hv-8">
          <mxGeometry relative="1" as="geometry">
            <Array as="points">
              <mxPoint x="240" y="854" />
              <mxPoint x="240" y="357" />
            </Array>
          </mxGeometry>
        </mxCell>
        <mxCell id="263Iciea_L3yjGNQv3Hv-14" value="Model training&lt;div&gt;Node&lt;/div&gt;" style="ellipse;whiteSpace=wrap;html=1;aspect=fixed;" vertex="1" parent="1">
          <mxGeometry x="280" y="809" width="90" height="90" as="geometry" />
        </mxCell>
        <mxCell id="263Iciea_L3yjGNQv3Hv-15" style="edgeStyle=orthogonalEdgeStyle;rounded=0;orthogonalLoop=1;jettySize=auto;html=1;entryX=0.5;entryY=1;entryDx=0;entryDy=0;" edge="1" parent="1" source="263Iciea_L3yjGNQv3Hv-52" target="263Iciea_L3yjGNQv3Hv-2">
          <mxGeometry relative="1" as="geometry" />
        </mxCell>
        <mxCell id="263Iciea_L3yjGNQv3Hv-16" value="Weights" style="edgeLabel;html=1;align=center;verticalAlign=middle;resizable=0;points=[];" vertex="1" connectable="0" parent="263Iciea_L3yjGNQv3Hv-15">
          <mxGeometry x="0.7416" relative="1" as="geometry">
            <mxPoint y="37" as="offset" />
          </mxGeometry>
        </mxCell>
        <mxCell id="263Iciea_L3yjGNQv3Hv-17" style="edgeStyle=orthogonalEdgeStyle;rounded=0;orthogonalLoop=1;jettySize=auto;html=1;entryX=1;entryY=0.5;entryDx=0;entryDy=0;" edge="1" parent="1" source="263Iciea_L3yjGNQv3Hv-19" target="263Iciea_L3yjGNQv3Hv-4">
          <mxGeometry relative="1" as="geometry">
            <Array as="points">
              <mxPoint x="620" y="854" />
              <mxPoint x="620" y="357" />
            </Array>
          </mxGeometry>
        </mxCell>
        <mxCell id="263Iciea_L3yjGNQv3Hv-18" style="edgeStyle=orthogonalEdgeStyle;rounded=0;orthogonalLoop=1;jettySize=auto;html=1;entryX=0.5;entryY=1;entryDx=0;entryDy=0;" edge="1" parent="1">
          <mxGeometry relative="1" as="geometry">
            <mxPoint x="482" y="854" as="sourcePoint" />
            <mxPoint x="424.5" y="747" as="targetPoint" />
            <Array as="points">
              <mxPoint x="425" y="854" />
            </Array>
          </mxGeometry>
        </mxCell>
        <mxCell id="263Iciea_L3yjGNQv3Hv-19" value="Model training&lt;div&gt;Node&lt;/div&gt;" style="ellipse;whiteSpace=wrap;html=1;aspect=fixed;" vertex="1" parent="1">
          <mxGeometry x="480" y="809" width="90" height="90" as="geometry" />
        </mxCell>
        <mxCell id="263Iciea_L3yjGNQv3Hv-20" value="computing Resource" style="rounded=0;whiteSpace=wrap;html=1;" vertex="1" parent="1">
          <mxGeometry x="265" y="1085" width="120" height="60" as="geometry" />
        </mxCell>
        <mxCell id="263Iciea_L3yjGNQv3Hv-21" value="computing Resource" style="rounded=0;whiteSpace=wrap;html=1;" vertex="1" parent="1">
          <mxGeometry x="465" y="1085" width="120" height="60" as="geometry" />
        </mxCell>
        <mxCell id="263Iciea_L3yjGNQv3Hv-22" style="edgeStyle=orthogonalEdgeStyle;rounded=0;orthogonalLoop=1;jettySize=auto;html=1;entryX=0.5;entryY=1;entryDx=0;entryDy=0;startArrow=classic;startFill=1;" edge="1" parent="1" source="263Iciea_L3yjGNQv3Hv-24" target="263Iciea_L3yjGNQv3Hv-21">
          <mxGeometry relative="1" as="geometry" />
        </mxCell>
        <mxCell id="263Iciea_L3yjGNQv3Hv-23" style="edgeStyle=orthogonalEdgeStyle;rounded=0;orthogonalLoop=1;jettySize=auto;html=1;entryX=0.5;entryY=1;entryDx=0;entryDy=0;startArrow=classic;startFill=1;" edge="1" parent="1" source="263Iciea_L3yjGNQv3Hv-24" target="263Iciea_L3yjGNQv3Hv-20">
          <mxGeometry relative="1" as="geometry" />
        </mxCell>
        <mxCell id="263Iciea_L3yjGNQv3Hv-24" value="Resource Pool Network" style="ellipse;whiteSpace=wrap;html=1;aspect=fixed;" vertex="1" parent="1">
          <mxGeometry x="340" y="1215" width="170" height="170" as="geometry" />
        </mxCell>
        <mxCell id="263Iciea_L3yjGNQv3Hv-25" value="" style="edgeStyle=orthogonalEdgeStyle;rounded=0;orthogonalLoop=1;jettySize=auto;html=1;" edge="1" parent="1" source="263Iciea_L3yjGNQv3Hv-26" target="263Iciea_L3yjGNQv3Hv-24">
          <mxGeometry relative="1" as="geometry" />
        </mxCell>
        <mxCell id="263Iciea_L3yjGNQv3Hv-26" value="External &lt;br&gt;Providers" style="rounded=1;whiteSpace=wrap;html=1;" vertex="1" parent="1">
          <mxGeometry x="160" y="1270" width="120" height="60" as="geometry" />
        </mxCell>
        <mxCell id="263Iciea_L3yjGNQv3Hv-27" value="" style="edgeStyle=orthogonalEdgeStyle;rounded=0;orthogonalLoop=1;jettySize=auto;html=1;" edge="1" parent="1" source="263Iciea_L3yjGNQv3Hv-28" target="263Iciea_L3yjGNQv3Hv-24">
          <mxGeometry relative="1" as="geometry" />
        </mxCell>
        <mxCell id="263Iciea_L3yjGNQv3Hv-28" value="External&lt;br&gt;Providers" style="rounded=1;whiteSpace=wrap;html=1;" vertex="1" parent="1">
          <mxGeometry x="560" y="1270" width="120" height="60" as="geometry" />
        </mxCell>
        <mxCell id="263Iciea_L3yjGNQv3Hv-29" value="Resource Hosts" style="rounded=0;whiteSpace=wrap;html=1;" vertex="1" parent="1">
          <mxGeometry x="380" y="1245" width="90" height="30" as="geometry" />
        </mxCell>
        <mxCell id="263Iciea_L3yjGNQv3Hv-30" style="edgeStyle=orthogonalEdgeStyle;rounded=0;orthogonalLoop=1;jettySize=auto;html=1;entryX=0;entryY=0.5;entryDx=0;entryDy=0;" edge="1" parent="1" source="263Iciea_L3yjGNQv3Hv-32" target="263Iciea_L3yjGNQv3Hv-14">
          <mxGeometry relative="1" as="geometry" />
        </mxCell>
        <mxCell id="263Iciea_L3yjGNQv3Hv-31" value="&lt;div&gt;&lt;span style=&quot;color: rgb(32, 33, 36); font-family: Roboto, arial, sans-serif; font-size: 13px; text-align: left; white-space: pre-wrap;&quot;&gt;Accuracy&lt;br/&gt;F1-score&lt;br/&gt;Precision&lt;br/&gt;Recall&lt;/span&gt;&lt;br&gt;&lt;/div&gt;" style="edgeLabel;html=1;align=center;verticalAlign=middle;resizable=0;points=[];" vertex="1" connectable="0" parent="263Iciea_L3yjGNQv3Hv-30">
          <mxGeometry x="-0.2301" y="-2" relative="1" as="geometry">
            <mxPoint x="-2" y="-2" as="offset" />
          </mxGeometry>
        </mxCell>
        <mxCell id="263Iciea_L3yjGNQv3Hv-32" value="Evalutaion metrices" style="rounded=1;whiteSpace=wrap;html=1;" vertex="1" parent="1">
          <mxGeometry x="50" y="824" width="120" height="60" as="geometry" />
        </mxCell>
        <mxCell id="263Iciea_L3yjGNQv3Hv-33" style="edgeStyle=orthogonalEdgeStyle;rounded=0;orthogonalLoop=1;jettySize=auto;html=1;entryX=1;entryY=0.5;entryDx=0;entryDy=0;" edge="1" parent="1" source="263Iciea_L3yjGNQv3Hv-36" target="263Iciea_L3yjGNQv3Hv-19">
          <mxGeometry relative="1" as="geometry" />
        </mxCell>
        <mxCell id="263Iciea_L3yjGNQv3Hv-34" value="&lt;span style=&quot;color: rgb(32, 33, 36); font-family: Roboto, arial, sans-serif; font-size: 13px; text-align: left; white-space: pre-wrap;&quot;&gt;Accuracy&lt;/span&gt;&lt;span style=&quot;color: rgb(32, 33, 36); font-family: Roboto, arial, sans-serif; font-size: 13px; text-align: left; white-space: pre-wrap;&quot;&gt;&lt;br/&gt;&lt;/span&gt;&lt;span style=&quot;color: rgb(32, 33, 36); font-family: Roboto, arial, sans-serif; font-size: 13px; text-align: left; white-space: pre-wrap;&quot;&gt;F1-score&lt;/span&gt;&lt;span style=&quot;color: rgb(32, 33, 36); font-family: Roboto, arial, sans-serif; font-size: 13px; text-align: left; white-space: pre-wrap;&quot;&gt;&lt;br/&gt;&lt;/span&gt;&lt;span style=&quot;color: rgb(32, 33, 36); font-family: Roboto, arial, sans-serif; font-size: 13px; text-align: left; white-space: pre-wrap;&quot;&gt;Precision&lt;/span&gt;&lt;span style=&quot;color: rgb(32, 33, 36); font-family: Roboto, arial, sans-serif; font-size: 13px; text-align: left; white-space: pre-wrap;&quot;&gt;&lt;br/&gt;&lt;/span&gt;&lt;span style=&quot;color: rgb(32, 33, 36); font-family: Roboto, arial, sans-serif; font-size: 13px; text-align: left; white-space: pre-wrap;&quot;&gt;Recall&lt;/span&gt;" style="edgeLabel;html=1;align=center;verticalAlign=middle;resizable=0;points=[];" vertex="1" connectable="0" parent="263Iciea_L3yjGNQv3Hv-33">
          <mxGeometry x="-0.3695" relative="1" as="geometry">
            <mxPoint as="offset" />
          </mxGeometry>
        </mxCell>
        <mxCell id="263Iciea_L3yjGNQv3Hv-35" style="edgeStyle=orthogonalEdgeStyle;rounded=0;orthogonalLoop=1;jettySize=auto;html=1;entryX=1;entryY=0.5;entryDx=0;entryDy=0;" edge="1" parent="1" source="263Iciea_L3yjGNQv3Hv-59" target="263Iciea_L3yjGNQv3Hv-37">
          <mxGeometry relative="1" as="geometry">
            <Array as="points" />
          </mxGeometry>
        </mxCell>
        <mxCell id="263Iciea_L3yjGNQv3Hv-36" value="Evalutaion metrices" style="rounded=1;whiteSpace=wrap;html=1;" vertex="1" parent="1">
          <mxGeometry x="690" y="824" width="120" height="60" as="geometry" />
        </mxCell>
        <mxCell id="263Iciea_L3yjGNQv3Hv-37" value="Gobal Receiver Module" style="rounded=1;whiteSpace=wrap;html=1;" vertex="1" parent="1">
          <mxGeometry x="350" y="669" width="150" height="30" as="geometry" />
        </mxCell>
        <mxCell id="263Iciea_L3yjGNQv3Hv-38" value="&lt;span id=&quot;docs-internal-guid-6943a75f-7fff-e89c-d8d8-6e341c577ea2&quot;&gt;&lt;span style=&quot;font-family: Arial, sans-serif; color: rgb(67, 67, 67); background-color: transparent; font-variant-numeric: normal; font-variant-east-asian: normal; font-variant-alternates: normal; font-variant-position: normal; vertical-align: baseline; white-space-collapse: preserve;&quot;&gt;&lt;font style=&quot;font-size: 11px;&quot;&gt;Model architecture&lt;/font&gt;&lt;/span&gt;&lt;/span&gt;" style="rounded=0;whiteSpace=wrap;html=1;" vertex="1" parent="1">
          <mxGeometry x="255" y="999" width="335" height="59" as="geometry" />
        </mxCell>
        <mxCell id="263Iciea_L3yjGNQv3Hv-39" value="" style="edgeStyle=orthogonalEdgeStyle;rounded=0;orthogonalLoop=1;jettySize=auto;html=1;" edge="1" parent="1" source="263Iciea_L3yjGNQv3Hv-21">
          <mxGeometry relative="1" as="geometry">
            <mxPoint x="525" y="1085" as="sourcePoint" />
            <mxPoint x="525.0270270270271" y="1058" as="targetPoint" />
          </mxGeometry>
        </mxCell>
        <mxCell id="263Iciea_L3yjGNQv3Hv-40" value="" style="edgeStyle=orthogonalEdgeStyle;rounded=0;orthogonalLoop=1;jettySize=auto;html=1;" edge="1" parent="1" source="263Iciea_L3yjGNQv3Hv-41" target="263Iciea_L3yjGNQv3Hv-38">
          <mxGeometry relative="1" as="geometry" />
        </mxCell>
        <mxCell id="263Iciea_L3yjGNQv3Hv-41" value="Dataset&lt;br&gt;Provider" style="whiteSpace=wrap;html=1;aspect=fixed;" vertex="1" parent="1">
          <mxGeometry x="75" y="989" width="80" height="80" as="geometry" />
        </mxCell>
        <mxCell id="263Iciea_L3yjGNQv3Hv-42" value="" style="edgeStyle=orthogonalEdgeStyle;rounded=0;orthogonalLoop=1;jettySize=auto;html=1;" edge="1" parent="1" source="263Iciea_L3yjGNQv3Hv-43">
          <mxGeometry relative="1" as="geometry">
            <mxPoint x="595" y="1038" as="targetPoint" />
          </mxGeometry>
        </mxCell>
        <mxCell id="263Iciea_L3yjGNQv3Hv-43" value="Dataset&lt;br&gt;Provider" style="whiteSpace=wrap;html=1;aspect=fixed;" vertex="1" parent="1">
          <mxGeometry x="710" y="999" width="80" height="80" as="geometry" />
        </mxCell>
        <mxCell id="263Iciea_L3yjGNQv3Hv-44" style="edgeStyle=orthogonalEdgeStyle;rounded=0;orthogonalLoop=1;jettySize=auto;html=1;entryX=0.5;entryY=1;entryDx=0;entryDy=0;" edge="1" parent="1" source="263Iciea_L3yjGNQv3Hv-45" target="263Iciea_L3yjGNQv3Hv-41">
          <mxGeometry relative="1" as="geometry" />
        </mxCell>
        <mxCell id="263Iciea_L3yjGNQv3Hv-45" value="Local" style="rounded=1;whiteSpace=wrap;html=1;" vertex="1" parent="1">
          <mxGeometry x="40" y="1118" width="70" height="60" as="geometry" />
        </mxCell>
        <mxCell id="263Iciea_L3yjGNQv3Hv-46" style="edgeStyle=orthogonalEdgeStyle;rounded=0;orthogonalLoop=1;jettySize=auto;html=1;entryX=0.5;entryY=1;entryDx=0;entryDy=0;" edge="1" parent="1" source="263Iciea_L3yjGNQv3Hv-47" target="263Iciea_L3yjGNQv3Hv-41">
          <mxGeometry relative="1" as="geometry" />
        </mxCell>
        <mxCell id="263Iciea_L3yjGNQv3Hv-47" value="hosted dataset" style="rounded=1;whiteSpace=wrap;html=1;" vertex="1" parent="1">
          <mxGeometry x="120" y="1118" width="70" height="60" as="geometry" />
        </mxCell>
        <mxCell id="263Iciea_L3yjGNQv3Hv-48" style="edgeStyle=orthogonalEdgeStyle;rounded=0;orthogonalLoop=1;jettySize=auto;html=1;" edge="1" parent="1" source="263Iciea_L3yjGNQv3Hv-49" target="263Iciea_L3yjGNQv3Hv-43">
          <mxGeometry relative="1" as="geometry" />
        </mxCell>
        <mxCell id="263Iciea_L3yjGNQv3Hv-49" value="Local" style="rounded=1;whiteSpace=wrap;html=1;" vertex="1" parent="1">
          <mxGeometry x="672" y="1108" width="70" height="60" as="geometry" />
        </mxCell>
        <mxCell id="263Iciea_L3yjGNQv3Hv-50" style="edgeStyle=orthogonalEdgeStyle;rounded=0;orthogonalLoop=1;jettySize=auto;html=1;entryX=0.5;entryY=1;entryDx=0;entryDy=0;" edge="1" parent="1" source="263Iciea_L3yjGNQv3Hv-51" target="263Iciea_L3yjGNQv3Hv-43">
          <mxGeometry relative="1" as="geometry" />
        </mxCell>
        <mxCell id="263Iciea_L3yjGNQv3Hv-51" value="hosted dataset" style="rounded=1;whiteSpace=wrap;html=1;" vertex="1" parent="1">
          <mxGeometry x="752" y="1108" width="70" height="60" as="geometry" />
        </mxCell>
        <mxCell id="263Iciea_L3yjGNQv3Hv-52" value="Update Synchronization" style="rounded=1;whiteSpace=wrap;html=1;" vertex="1" parent="1">
          <mxGeometry x="325" y="719" width="195" height="28" as="geometry" />
        </mxCell>
        <mxCell id="263Iciea_L3yjGNQv3Hv-53" style="edgeStyle=orthogonalEdgeStyle;rounded=0;orthogonalLoop=1;jettySize=auto;html=1;entryX=0.5;entryY=1;entryDx=0;entryDy=0;" edge="1" parent="1" source="263Iciea_L3yjGNQv3Hv-55" target="263Iciea_L3yjGNQv3Hv-14">
          <mxGeometry relative="1" as="geometry" />
        </mxCell>
        <mxCell id="263Iciea_L3yjGNQv3Hv-54" style="edgeStyle=orthogonalEdgeStyle;rounded=0;orthogonalLoop=1;jettySize=auto;html=1;entryX=0.5;entryY=1;entryDx=0;entryDy=0;" edge="1" parent="1" source="263Iciea_L3yjGNQv3Hv-55" target="263Iciea_L3yjGNQv3Hv-19">
          <mxGeometry relative="1" as="geometry" />
        </mxCell>
        <mxCell id="263Iciea_L3yjGNQv3Hv-55" value="&lt;span style=&quot;color: rgb(67, 67, 67); font-family: Arial, sans-serif; font-size: 11px; white-space-collapse: preserve;&quot;&gt;Hyperparameter Optimizer&lt;/span&gt;" style="rounded=0;whiteSpace=wrap;html=1;" vertex="1" parent="1">
          <mxGeometry x="255" y="929" width="335" height="40" as="geometry" />
        </mxCell>
        <mxCell id="263Iciea_L3yjGNQv3Hv-56" value="" style="edgeStyle=orthogonalEdgeStyle;rounded=0;orthogonalLoop=1;jettySize=auto;html=1;entryX=1;entryY=0.5;entryDx=0;entryDy=0;" edge="1" parent="1" source="263Iciea_L3yjGNQv3Hv-36" target="263Iciea_L3yjGNQv3Hv-59">
          <mxGeometry relative="1" as="geometry">
            <mxPoint x="750" y="824" as="sourcePoint" />
            <mxPoint x="500" y="684" as="targetPoint" />
            <Array as="points">
              <mxPoint x="750" y="684" />
            </Array>
          </mxGeometry>
        </mxCell>
        <mxCell id="263Iciea_L3yjGNQv3Hv-57" value="model metric data" style="edgeLabel;html=1;align=center;verticalAlign=middle;resizable=0;points=[];" vertex="1" connectable="0" parent="263Iciea_L3yjGNQv3Hv-56">
          <mxGeometry x="-0.2181" y="-2" relative="1" as="geometry">
            <mxPoint as="offset" />
          </mxGeometry>
        </mxCell>
        <mxCell id="263Iciea_L3yjGNQv3Hv-58" value="" style="edgeStyle=orthogonalEdgeStyle;rounded=0;orthogonalLoop=1;jettySize=auto;html=1;" edge="1" parent="1" source="263Iciea_L3yjGNQv3Hv-59" target="263Iciea_L3yjGNQv3Hv-67">
          <mxGeometry relative="1" as="geometry" />
        </mxCell>
        <mxCell id="263Iciea_L3yjGNQv3Hv-59" value="Model evaluation &lt;br&gt;Epoch" style="html=1;verticalLabelPosition=bottom;align=center;labelBackgroundColor=#ffffff;verticalAlign=top;strokeWidth=2;strokeColor=#0080F0;shadow=0;dashed=0;shape=mxgraph.ios7.icons.repeat;pointerEvents=1" vertex="1" parent="1">
          <mxGeometry x="660" y="659" width="68" height="50" as="geometry" />
        </mxCell>
        <mxCell id="263Iciea_L3yjGNQv3Hv-60" value="" style="edgeStyle=orthogonalEdgeStyle;rounded=0;orthogonalLoop=1;jettySize=auto;html=1;entryX=0;entryY=0.5;entryDx=0;entryDy=0;" edge="1" parent="1" source="263Iciea_L3yjGNQv3Hv-32" target="263Iciea_L3yjGNQv3Hv-64">
          <mxGeometry relative="1" as="geometry">
            <mxPoint x="110" y="824" as="sourcePoint" />
            <mxPoint x="350" y="684" as="targetPoint" />
            <Array as="points" />
          </mxGeometry>
        </mxCell>
        <mxCell id="263Iciea_L3yjGNQv3Hv-61" value="model metric data" style="edgeLabel;html=1;align=center;verticalAlign=middle;resizable=0;points=[];" vertex="1" connectable="0" parent="263Iciea_L3yjGNQv3Hv-60">
          <mxGeometry x="-0.3435" relative="1" as="geometry">
            <mxPoint as="offset" />
          </mxGeometry>
        </mxCell>
        <mxCell id="263Iciea_L3yjGNQv3Hv-62" style="edgeStyle=orthogonalEdgeStyle;rounded=0;orthogonalLoop=1;jettySize=auto;html=1;" edge="1" parent="1" source="263Iciea_L3yjGNQv3Hv-64" target="263Iciea_L3yjGNQv3Hv-37">
          <mxGeometry relative="1" as="geometry" />
        </mxCell>
        <mxCell id="263Iciea_L3yjGNQv3Hv-63" value="" style="edgeStyle=orthogonalEdgeStyle;rounded=0;orthogonalLoop=1;jettySize=auto;html=1;" edge="1" parent="1" source="263Iciea_L3yjGNQv3Hv-64" target="263Iciea_L3yjGNQv3Hv-65">
          <mxGeometry relative="1" as="geometry" />
        </mxCell>
        <mxCell id="263Iciea_L3yjGNQv3Hv-64" value="Model evaluation &lt;br&gt;Epoch" style="html=1;verticalLabelPosition=bottom;align=center;labelBackgroundColor=#ffffff;verticalAlign=top;strokeWidth=2;strokeColor=#0080F0;shadow=0;dashed=0;shape=mxgraph.ios7.icons.repeat;pointerEvents=1" vertex="1" parent="1">
          <mxGeometry x="130" y="659" width="68" height="50" as="geometry" />
        </mxCell>
        <mxCell id="263Iciea_L3yjGNQv3Hv-65" value="Gobal Validation Module" style="rounded=1;whiteSpace=wrap;html=1;" vertex="1" parent="1">
          <mxGeometry x="115" y="568.5" width="98" height="49" as="geometry" />
        </mxCell>
        <mxCell id="263Iciea_L3yjGNQv3Hv-66" style="edgeStyle=orthogonalEdgeStyle;rounded=0;orthogonalLoop=1;jettySize=auto;html=1;" edge="1" parent="1" source="263Iciea_L3yjGNQv3Hv-67" target="263Iciea_L3yjGNQv3Hv-2">
          <mxGeometry relative="1" as="geometry" />
        </mxCell>
        <mxCell id="263Iciea_L3yjGNQv3Hv-67" value="Gobal Validation Module" style="rounded=1;whiteSpace=wrap;html=1;" vertex="1" parent="1">
          <mxGeometry x="645" y="568.5" width="98" height="49" as="geometry" />
        </mxCell>
        <mxCell id="263Iciea_L3yjGNQv3Hv-68" value="Data &lt;br&gt;Aggregator" style="rounded=0;whiteSpace=wrap;html=1;" vertex="1" parent="1">
          <mxGeometry x="378" y="539" width="95" height="40" as="geometry" />
        </mxCell>
        <mxCell id="263Iciea_L3yjGNQv3Hv-69" value="Preproccessing" style="rounded=1;whiteSpace=wrap;html=1;" vertex="1" parent="1">
          <mxGeometry x="475" y="1013.5" width="110" height="30" as="geometry" />
        </mxCell>
        <mxCell id="263Iciea_L3yjGNQv3Hv-70" value="Preproccessing" style="rounded=1;whiteSpace=wrap;html=1;" vertex="1" parent="1">
          <mxGeometry x="260" y="1013.5" width="110" height="30" as="geometry" />
        </mxCell>
        <mxCell id="263Iciea_L3yjGNQv3Hv-71" value="" style="html=1;verticalLabelPosition=bottom;align=center;labelBackgroundColor=#ffffff;verticalAlign=top;strokeWidth=2;strokeColor=#0080F0;shadow=0;dashed=0;shape=mxgraph.ios7.icons.reload;" vertex="1" parent="1">
          <mxGeometry x="366" y="389" width="118" height="130" as="geometry" />
        </mxCell>
        <mxCell id="263Iciea_L3yjGNQv3Hv-73" value="&lt;h1 style=&quot;margin-top: 0px;&quot;&gt;AIVM SUBNET ARCITECTURE&lt;/h1&gt;" style="text;html=1;whiteSpace=wrap;overflow=hidden;rounded=0;" vertex="1" parent="1">
          <mxGeometry x="262.5" y="140" width="355" height="40" as="geometry" />
        </mxCell>
      </root>
    </mxGraphModel>
  </diagram>
</mxfile>
